# xmcd
#
# Track frame offsets: 
#        150
#        11498
#        27113
#        38275
#        55961
#        71226
#        86912
#        106276
#        121644
#        136829
#        152860
#        165137
#        178774
#        196942
#        212722
#        227484
#        242563
#        256891
#        275352
#
# Disc length: 3834 seconds
#
# Revision: 1
# Processed by: cddbd v1.5.2PL0 Copyright (c) Steve Scherf et al.
# Submitted via: ExactAudioCopy v1.3
#
DISCID=ef0ef813
DTITLE=Ken Mullen - Love Changes Everything
DYEAR=2008
DGENRE=Country
TTITLE0=Waltz Across Texas
TTITLE1=Love Changes Everything
TTITLE2=I Was Coming Home to You
TTITLE3=On the Wings of a Silver Bird
TTITLE4=I Will Love You All My Life
TTITLE5=Unchained Melody
TTITLE6=Back Home Again
TTITLE7=Bunch of Thyme
TTITLE8=If I Can Dream of You
TTITLE9=Wind Beneath My Wings
TTITLE10=All the Tears in the World
TTITLE11=She Thinks I Still Care
TTITLE12=The Rose
TTITLE13=Blue Eyes Crying in the Rain
TTITLE14=There Goes My Everything
TTITLE15=Forever and Ever
TTITLE16=Send Me the Pillow That You Dream On
TTITLE17=Lucille
TTITLE18=The Way Old Friends Do
EXTD=
EXTT0=
EXTT1=
EXTT2=
EXTT3=
EXTT4=
EXTT5=
EXTT6=
EXTT7=
EXTT8=
EXTT9=
EXTT10=
EXTT11=
EXTT12=
EXTT13=
EXTT14=
EXTT15=
EXTT16=
EXTT17=
EXTT18=
PLAYORDER=
